<svg id="Слой_1" data-name="Слой 1" xmlns="http://www.w3.org/2000/svg" viewBox="0 0 152 75"><defs><style>.cls-1{fill:#00a4e0;}</style></defs><title>logo</title><path class="cls-1" d="M151.375,42.319 C150.975,43.423 150.401,44.379 149.654,45.187 C148.931,45.963 148.093,46.535 147.138,46.906 C146.176,47.277 145.056,47.462 143.781,47.462 L143.624,47.462 L139.037,47.462 L138.906,47.462 C138.512,47.462 138.232,47.373 138.063,47.197 C137.895,47.029 137.810,46.754 137.810,46.375 L137.810,46.173 L137.810,31.502 L137.810,31.325 C137.810,30.913 137.890,30.622 138.051,30.453 C138.203,30.293 138.472,30.213 138.857,30.213 L139.037,30.213 L143.660,30.213 L143.841,30.213 C146.401,30.222 148.370,31.009 149.750,32.576 C150.480,33.393 151.038,34.329 151.424,35.382 C151.800,36.452 151.990,37.597 151.990,38.818 C151.990,40.040 151.785,41.206 151.375,42.319 ZM148.570,33.726 C148.146,33.229 147.696,32.833 147.223,32.538 C146.734,32.235 146.192,32.016 145.597,31.881 C145.003,31.747 144.294,31.679 143.467,31.679 L143.299,31.679 L139.471,31.679 L139.471,45.996 L143.250,45.996 L143.419,45.996 C144.599,45.988 145.575,45.828 146.344,45.516 C147.107,45.213 147.804,44.707 148.439,44.000 C149.634,42.652 150.232,40.933 150.232,38.844 C150.232,36.729 149.678,35.023 148.570,33.726 ZM138.311,62.107 C138.311,62.292 138.237,62.467 138.091,62.632 C137.927,62.798 137.747,62.881 137.553,62.881 C137.378,62.881 137.242,62.847 137.145,62.778 L136.693,62.501 C136.538,62.404 136.348,62.355 136.125,62.355 C135.455,62.355 134.683,62.813 133.809,63.727 C133.333,64.252 132.999,64.685 132.804,65.025 L132.804,73.620 L132.804,73.767 C132.804,74.516 132.523,74.890 131.960,74.890 C131.396,74.890 131.115,74.516 131.115,73.767 L131.115,73.620 L131.115,61.976 L131.115,61.830 C131.115,61.081 131.396,60.706 131.960,60.706 C132.523,60.706 132.804,61.081 132.804,61.830 L132.804,61.976 L132.804,62.881 C133.329,62.180 133.896,61.640 134.509,61.261 C135.111,60.881 135.698,60.692 136.272,60.692 C136.640,60.692 136.980,60.755 137.290,60.881 C137.601,61.008 137.849,61.183 138.033,61.407 C138.218,61.621 138.311,61.854 138.311,62.107 ZM132.773,45.288 C132.043,46.097 131.165,46.725 130.138,47.171 C129.135,47.609 128.039,47.828 126.852,47.828 C125.319,47.828 123.943,47.441 122.723,46.666 C121.496,45.891 120.537,44.809 119.846,43.418 C119.157,42.037 118.811,40.491 118.811,38.780 C118.811,38.039 118.891,37.286 119.053,36.519 C119.213,35.743 119.445,35.044 119.750,34.421 C120.055,33.772 120.436,33.174 120.894,32.626 C122.418,30.773 124.420,29.847 126.900,29.847 C128.472,29.847 129.877,30.230 131.113,30.997 C132.357,31.772 133.327,32.846 134.025,34.219 C134.716,35.601 135.061,37.159 135.061,38.894 C135.061,40.200 134.864,41.384 134.471,42.445 C134.078,43.532 133.512,44.480 132.773,45.288 ZM132.833,35.811 C132.513,34.901 132.067,34.110 131.498,33.436 C130.928,32.778 130.246,32.256 129.451,31.869 C128.657,31.498 127.814,31.312 126.924,31.312 C126.034,31.312 125.198,31.498 124.420,31.869 C123.642,32.231 122.964,32.749 122.386,33.423 C121.817,34.089 121.367,34.885 121.038,35.811 C120.716,36.738 120.556,37.736 120.556,38.806 C120.556,39.488 120.624,40.151 120.762,40.796 C120.897,41.441 121.111,42.062 121.399,42.660 C121.961,43.822 122.723,44.728 123.687,45.377 C124.664,46.034 125.748,46.363 126.936,46.363 C128.140,46.363 129.227,46.034 130.198,45.377 C131.169,44.720 131.932,43.810 132.486,42.647 C133.038,41.485 133.316,40.200 133.316,38.794 C133.316,37.715 133.155,36.721 132.833,35.811 ZM123.660,2.361 C123.647,2.375 123.636,2.391 123.626,2.409 C123.626,2.418 123.619,2.433 123.606,2.451 C123.591,2.469 123.581,2.488 123.571,2.507 L117.815,11.746 L117.815,18.694 L117.815,18.860 C117.815,19.685 117.501,20.097 116.871,20.097 C116.235,20.097 115.915,19.685 115.915,18.860 L115.915,18.694 L115.915,11.746 L110.144,2.549 L110.020,2.340 C109.864,2.071 109.784,1.840 109.784,1.645 C109.784,1.395 109.877,1.177 110.062,0.992 C110.237,0.816 110.460,0.728 110.728,0.728 C111.098,0.728 111.412,0.941 111.671,1.367 L111.768,1.534 L116.914,9.843 L122.073,1.561 L122.171,1.395 C122.438,0.951 122.762,0.728 123.141,0.728 C123.354,0.728 123.552,0.807 123.737,0.964 C123.913,1.112 124.001,1.297 124.001,1.520 C124.001,1.714 123.894,1.983 123.682,2.326 C123.682,2.335 123.675,2.347 123.660,2.361 ZM115.449,34.219 C116.138,35.601 116.485,37.159 116.485,38.894 C116.485,40.200 116.287,41.384 115.893,42.445 C115.501,43.532 114.935,44.480 114.197,45.288 C113.467,46.097 112.589,46.725 111.561,47.171 C110.557,47.609 109.462,47.828 108.275,47.828 C106.742,47.828 105.366,47.441 104.146,46.666 C102.919,45.891 101.959,44.809 101.269,43.418 C100.580,42.037 100.234,40.491 100.234,38.780 C100.234,38.039 100.315,37.286 100.475,36.519 C100.635,35.743 100.868,35.044 101.173,34.421 C101.477,33.772 101.860,33.174 102.317,32.626 C103.841,30.773 105.843,29.847 108.323,29.847 C109.896,29.847 111.300,30.230 112.536,30.997 C113.779,31.772 114.750,32.846 115.449,34.219 ZM108.347,31.312 C107.456,31.312 106.622,31.498 105.843,31.869 C105.065,32.231 104.387,32.749 103.809,33.423 C103.240,34.089 102.790,34.885 102.462,35.811 C102.140,36.738 101.980,37.736 101.980,38.806 C101.980,39.488 102.047,40.151 102.184,40.796 C102.321,41.441 102.534,42.062 102.822,42.660 C103.384,43.822 104.146,44.728 105.109,45.377 C106.088,46.034 107.171,46.363 108.359,46.363 C109.563,46.363 110.649,46.034 111.621,45.377 C112.592,44.720 113.354,43.810 113.908,42.647 C114.461,41.485 114.739,40.200 114.739,38.794 C114.739,37.715 114.578,36.721 114.257,35.811 C113.936,34.901 113.491,34.110 112.922,33.436 C112.350,32.778 111.669,32.256 110.875,31.869 C110.080,31.498 109.238,31.312 108.347,31.312 ZM106.793,20.111 C106.191,20.111 105.854,19.671 105.780,18.790 L104.643,5.244 L99.344,19.152 C99.104,19.782 98.767,20.097 98.332,20.097 C97.916,20.097 97.583,19.787 97.333,19.166 L91.952,5.244 L90.745,18.777 C90.708,19.241 90.616,19.583 90.468,19.805 C90.320,20.009 90.098,20.111 89.802,20.111 C89.220,20.111 88.928,19.755 88.928,19.041 C88.928,18.958 88.937,18.814 88.957,18.610 L90.441,2.159 C90.441,2.066 90.445,1.993 90.454,1.937 C90.510,1.140 90.833,0.742 91.425,0.742 C91.712,0.742 91.943,0.825 92.119,0.992 C92.285,1.159 92.461,1.478 92.646,1.950 L92.729,2.173 L98.429,16.707 L103.991,2.104 C104.009,2.076 104.038,2.006 104.074,1.895 C104.222,1.469 104.379,1.163 104.545,0.979 C104.703,0.820 104.911,0.742 105.170,0.742 C105.780,0.742 106.122,1.196 106.196,2.104 L107.708,18.610 L107.735,18.944 C107.735,19.286 107.648,19.565 107.473,19.778 C107.296,20.000 107.069,20.111 106.793,20.111 ZM77.492,28.006 C77.284,28.370 77.184,28.773 77.153,29.191 C77.140,29.365 77.088,29.552 77.304,29.670 C77.439,29.742 77.440,29.897 77.389,30.026 C77.099,30.772 77.522,31.291 77.943,31.809 C78.058,31.949 78.190,32.075 78.320,32.202 C78.453,32.333 78.588,32.457 78.486,32.672 C78.380,32.895 78.181,32.913 77.981,32.887 C77.415,32.812 76.901,32.593 76.447,32.248 C75.976,31.890 75.564,31.459 75.062,31.139 L75.062,35.656 L60.125,35.656 C60.090,35.892 59.977,36.104 59.717,36.115 C59.419,36.128 59.378,35.880 59.344,35.656 L39.469,35.656 L39.469,-0.000 L75.062,-0.000 L75.062,1.272 C75.080,1.179 75.097,1.094 75.118,0.961 C75.231,1.441 75.599,1.160 75.841,1.368 C76.330,1.788 76.895,2.052 76.808,2.895 C76.773,3.228 77.141,3.614 77.176,4.037 C77.193,4.252 77.280,4.458 77.101,4.645 C77.068,4.678 77.026,4.738 77.036,4.772 C77.258,5.520 76.531,6.021 76.541,6.713 C76.544,6.945 76.377,6.956 76.197,6.963 C75.966,6.973 75.760,7.061 75.766,7.336 C75.773,7.626 76.041,7.543 76.185,7.549 C77.200,7.596 77.714,7.893 78.146,9.551 C78.321,10.220 78.633,10.765 79.074,11.406 C79.157,10.747 79.230,10.187 79.296,9.625 C79.314,9.466 79.237,9.336 79.128,9.226 C78.705,8.804 78.539,8.191 78.082,7.794 C78.017,7.738 77.966,7.636 78.030,7.576 C78.171,7.445 78.338,7.513 78.495,7.566 C78.610,7.727 78.719,7.893 78.917,8.018 C78.988,7.773 78.858,7.654 78.731,7.534 C78.636,6.733 78.846,6.571 79.592,6.857 C80.540,7.219 80.676,7.706 80.601,8.665 C80.536,9.501 80.437,10.337 80.436,11.173 C80.434,12.112 80.280,13.022 80.064,13.924 C79.979,14.276 79.904,14.734 79.456,14.797 C78.957,14.869 78.512,14.668 78.234,14.214 C77.932,13.723 77.630,13.233 77.174,12.672 C77.147,13.401 76.908,14.010 76.894,14.597 C76.873,15.510 76.602,16.404 76.714,17.318 C76.761,17.699 76.473,17.757 76.223,17.846 C76.291,18.042 76.451,18.028 76.561,18.066 C77.985,18.556 79.241,19.364 80.367,20.328 C81.284,21.114 81.249,21.843 80.444,23.018 C79.348,24.618 78.448,26.326 77.492,28.006 ZM40.437,0.969 L40.437,34.687 L59.240,34.687 C59.228,34.268 59.269,33.851 59.426,33.440 C59.616,32.951 59.958,32.497 59.754,31.923 C59.749,31.791 59.747,31.658 59.738,31.526 C59.649,30.152 60.126,30.143 61.109,30.295 C61.783,30.401 62.292,30.200 62.791,29.814 C63.522,29.250 64.259,28.691 64.993,28.130 C65.032,28.100 65.087,28.075 65.105,28.035 C65.563,27.040 66.544,26.742 67.422,26.387 C68.410,25.988 68.940,25.260 69.273,24.329 C69.623,23.348 69.991,22.375 70.526,21.481 C70.867,20.908 70.822,20.296 70.622,19.754 C70.415,19.192 70.630,18.733 70.715,18.234 C70.751,18.027 70.824,17.808 70.939,17.633 C71.619,16.613 71.328,15.558 71.104,14.490 C70.907,13.547 70.848,12.585 70.875,11.623 C70.892,11.001 70.787,10.403 70.636,9.806 C70.571,9.548 70.451,9.462 70.178,9.525 C69.333,9.721 68.498,10.019 67.605,9.832 C67.383,9.785 67.275,9.974 67.206,10.138 C66.688,11.368 65.968,12.519 65.814,13.890 C65.783,14.174 65.770,14.411 66.005,14.606 C66.479,14.997 66.676,15.626 67.176,15.995 C67.239,16.042 67.322,16.100 67.282,16.192 C67.235,16.304 67.123,16.300 67.026,16.282 C66.748,16.231 66.578,16.022 66.385,15.842 C66.051,15.533 65.909,15.577 65.796,16.020 C65.729,16.282 65.762,16.547 65.785,16.811 C65.813,17.116 65.686,17.279 65.388,17.173 C65.232,17.117 65.158,17.154 65.064,17.250 C64.915,17.401 64.799,17.303 64.686,17.193 C64.697,17.078 64.718,16.962 64.713,16.847 C64.709,16.697 64.897,16.464 64.697,16.416 C64.469,16.359 64.519,16.670 64.426,16.807 C64.320,16.960 64.420,17.288 64.070,17.234 C63.838,16.847 64.227,16.519 64.190,16.129 C63.866,16.219 63.746,16.489 63.571,16.699 C63.481,16.807 63.389,17.001 63.229,16.868 C63.089,16.752 63.220,16.594 63.305,16.476 C63.402,16.343 63.514,16.219 63.619,16.093 C63.704,15.992 63.846,15.902 63.867,15.789 C64.029,14.944 64.607,14.232 64.656,13.361 C64.741,11.846 65.288,10.453 65.719,9.029 C65.773,8.851 65.885,8.699 66.062,8.623 C66.832,8.292 67.536,7.808 68.368,7.619 C69.134,7.445 69.912,7.316 70.570,6.820 C70.826,6.627 71.173,6.557 71.469,6.673 C72.135,6.935 72.681,6.527 73.277,6.410 C73.485,6.369 73.465,6.165 73.477,6.003 C73.505,5.599 73.282,5.274 73.138,4.925 C72.658,3.758 72.826,2.975 73.709,2.254 C73.824,2.160 73.962,2.116 74.094,2.059 L74.094,0.969 L40.437,0.969 ZM77.300,22.322 C76.549,22.236 75.786,22.392 75.039,22.198 C74.861,22.151 74.843,22.343 74.789,22.452 C74.273,23.472 73.627,24.406 72.862,25.244 C72.106,26.071 71.292,26.838 70.596,27.730 C70.199,28.239 69.500,28.369 68.912,28.622 C68.777,28.680 68.615,28.691 68.494,28.769 C66.747,29.895 64.798,30.656 63.072,31.818 C62.816,31.991 62.553,32.170 62.370,32.434 C62.155,32.594 61.748,32.656 62.141,33.077 C62.276,33.223 62.029,33.300 61.892,33.324 C61.486,33.393 61.175,33.610 60.920,33.924 C60.717,34.165 60.536,34.415 60.398,34.687 L74.094,34.687 L74.094,30.588 L74.349,30.545 C74.318,30.399 74.346,30.230 74.430,30.046 C74.619,29.633 74.848,29.300 75.239,29.024 C75.657,28.728 75.843,28.202 76.016,27.722 C76.469,26.460 76.876,25.181 77.138,23.861 C77.216,23.469 77.314,23.079 77.526,22.740 C77.721,22.427 77.596,22.356 77.300,22.322 ZM0.548,39.518 L35.913,39.518 L35.913,74.946 L0.548,74.946 L0.548,39.518 ZM10.938,72.437 C11.098,72.461 11.262,72.468 11.424,72.465 C11.825,72.459 12.090,72.273 12.192,71.883 C12.254,71.646 12.241,71.390 12.284,71.147 C12.313,70.985 12.389,70.831 12.434,70.672 C12.470,70.541 12.552,70.374 12.503,70.280 C12.410,70.097 12.504,69.995 12.579,69.869 C12.631,69.783 12.685,69.697 12.737,69.611 C13.458,68.415 14.210,67.233 14.733,65.932 C14.965,65.354 15.273,64.837 15.661,64.355 C16.081,63.837 16.507,63.314 16.737,62.677 C17.210,61.370 17.883,60.164 18.617,58.995 C18.765,58.760 18.843,58.522 18.936,58.277 C18.967,58.197 19.020,58.126 19.071,58.035 C19.309,58.490 19.608,58.856 19.782,59.315 C20.314,60.715 20.852,62.105 21.182,63.573 C21.319,64.189 21.641,64.760 21.817,65.368 C22.110,66.383 22.554,67.324 23.062,68.245 C23.504,69.045 23.909,69.866 24.327,70.680 C24.410,70.842 24.493,71.002 24.348,71.189 C24.303,71.246 24.344,71.368 24.335,71.459 C24.315,71.677 24.326,71.907 24.259,72.110 C24.116,72.545 24.295,72.919 24.743,72.977 C25.287,73.048 25.797,73.192 26.288,73.447 C26.619,73.619 26.990,73.674 27.373,73.607 C27.583,73.570 27.710,73.444 27.728,73.263 C27.739,73.154 27.649,73.006 27.561,72.922 C27.378,72.745 27.152,72.616 26.973,72.438 C26.719,72.187 26.498,71.905 26.252,71.647 C26.085,71.472 25.918,71.311 25.887,71.048 C25.878,70.973 25.760,70.844 25.715,70.853 C25.536,70.887 25.495,70.778 25.461,70.659 C25.274,70.011 25.060,69.369 24.914,68.713 C24.553,67.080 24.127,65.472 23.332,63.984 C23.263,63.856 23.207,63.712 23.187,63.569 C23.084,62.847 22.974,62.125 22.905,61.399 C22.808,60.381 22.834,59.350 22.568,58.324 C22.782,58.314 22.743,58.190 22.694,58.066 C22.508,57.597 22.319,57.130 22.136,56.661 C21.948,56.179 21.834,55.687 21.883,55.160 C21.913,54.837 21.915,54.509 21.900,54.185 C21.858,53.270 21.789,52.356 21.757,51.441 C21.745,51.122 21.762,50.788 21.842,50.482 C22.046,49.707 21.891,49.007 21.494,48.338 C21.435,48.238 21.382,48.134 21.324,48.033 C21.000,47.467 21.049,47.089 21.499,46.604 C22.000,46.064 22.508,45.528 22.989,44.969 C23.293,44.617 23.560,44.231 23.660,43.760 C23.754,43.312 23.611,43.136 23.155,43.124 C22.318,43.102 21.502,43.237 20.695,43.444 C20.498,43.494 20.298,43.538 20.092,43.587 C20.084,43.453 20.077,43.353 20.070,43.253 C19.979,42.016 19.028,41.544 18.063,41.657 C17.691,41.700 17.375,41.651 17.055,41.488 C16.607,41.261 16.156,41.275 15.719,41.517 C15.530,41.622 15.353,41.750 15.184,41.886 C14.880,42.128 14.608,42.414 14.287,42.626 C13.691,43.021 13.048,43.129 12.376,42.798 C12.368,42.793 12.352,42.803 12.333,42.808 C12.361,42.851 12.389,42.892 12.429,42.952 C12.357,42.934 12.310,42.922 12.250,42.907 C12.278,42.962 12.296,42.998 12.332,43.068 C12.193,43.025 12.086,42.993 11.936,42.946 C12.063,43.061 12.153,43.144 12.244,43.227 C12.237,43.237 12.230,43.247 12.223,43.256 C12.101,43.220 11.979,43.183 11.831,43.139 C12.264,43.612 12.860,43.739 13.374,44.011 C14.474,44.071 15.600,44.290 16.529,43.473 C16.635,43.673 16.733,43.854 16.810,43.999 C16.432,44.151 16.056,44.308 15.675,44.450 C15.510,44.512 15.336,44.554 15.162,44.584 C14.514,44.697 13.855,44.761 13.219,44.922 C12.646,45.068 12.082,45.280 11.547,45.532 C11.117,45.734 11.088,46.064 11.433,46.387 C11.885,46.811 12.350,47.225 12.839,47.604 C13.496,48.113 14.268,48.406 15.043,48.686 C15.380,48.807 15.695,48.964 15.922,49.266 C16.345,49.832 16.798,50.376 17.204,50.953 C17.533,51.420 17.828,51.914 18.108,52.412 C18.266,52.692 18.236,52.995 18.051,53.273 C17.908,53.486 17.786,53.714 17.634,53.919 C17.214,54.481 16.858,55.077 16.580,55.724 C16.271,56.443 15.938,57.152 15.623,57.869 C15.586,57.951 15.553,58.100 15.594,58.140 C15.705,58.247 15.666,58.344 15.641,58.457 C15.607,58.616 15.570,58.776 15.553,58.938 C15.340,61.025 14.516,62.869 13.315,64.558 C13.023,64.969 12.797,65.406 12.666,65.890 C12.334,67.118 12.007,68.346 11.685,69.577 C11.633,69.776 11.550,69.926 11.358,70.025 C11.195,70.107 11.091,70.234 11.097,70.451 C11.103,70.626 11.072,70.821 10.995,70.977 C10.894,71.183 10.734,71.361 10.595,71.546 C10.275,71.975 10.419,72.358 10.938,72.437 ZM20.000,44.691 C20.003,44.551 20.075,44.501 20.198,44.487 C20.764,44.424 21.331,44.360 21.898,44.298 C21.908,44.321 21.918,44.343 21.928,44.366 C21.899,44.413 21.878,44.468 21.840,44.505 C21.549,44.782 21.257,45.058 20.961,45.328 C20.516,45.734 20.066,46.136 19.618,46.539 C19.579,46.573 19.542,46.610 19.504,46.646 C19.322,46.414 19.290,46.175 19.463,45.988 C19.806,45.618 19.991,45.193 20.000,44.691 ZM16.421,47.361 C16.052,47.183 15.644,47.179 15.258,47.089 C14.563,46.926 13.898,46.636 13.222,46.397 C13.194,46.387 13.172,46.360 13.137,46.333 C13.172,46.294 13.190,46.254 13.220,46.242 C13.949,45.944 14.622,45.510 15.409,45.349 C15.682,45.293 15.926,45.308 16.153,45.491 C16.346,45.646 16.576,45.673 16.816,45.633 C16.991,45.603 17.166,45.572 17.340,45.542 C17.348,45.513 17.356,45.484 17.364,45.454 C17.169,45.399 16.974,45.344 16.803,45.296 C17.301,45.150 17.563,45.351 17.556,45.904 C17.554,46.129 17.536,46.355 17.554,46.580 C17.601,47.156 16.831,47.559 16.421,47.361 ZM-0.006,0.079 L35.359,0.079 L35.359,35.508 L-0.006,35.508 L-0.006,0.079 ZM28.294,13.219 C28.264,12.994 28.235,12.770 28.205,12.546 C28.064,11.497 27.749,10.504 27.258,9.565 C26.892,8.866 26.447,8.227 25.917,7.645 C25.364,7.038 24.741,6.517 24.048,6.076 C23.125,5.490 22.127,5.088 21.060,4.863 C20.684,4.784 20.297,4.753 19.914,4.699 C19.863,4.691 19.812,4.680 19.761,4.670 C19.393,4.670 19.025,4.670 18.657,4.670 C18.381,4.707 18.105,4.742 17.829,4.783 C16.599,4.966 15.462,5.395 14.407,6.054 C13.433,6.662 12.604,7.428 11.920,8.349 C11.163,9.366 10.631,10.492 10.363,11.734 C10.265,12.187 10.220,12.650 10.151,13.109 C10.145,13.146 10.133,13.182 10.124,13.219 C10.124,13.587 10.124,13.955 10.124,14.324 C10.153,14.548 10.183,14.773 10.212,14.997 C10.368,16.171 10.745,17.269 11.333,18.297 C11.872,19.238 12.560,20.055 13.388,20.750 C14.154,21.396 15.008,21.899 15.943,22.262 C16.787,22.588 17.661,22.778 18.562,22.848 C18.594,22.850 18.626,22.864 18.657,22.873 C19.025,22.873 19.393,22.873 19.761,22.873 C19.984,22.843 20.208,22.814 20.432,22.784 C21.604,22.629 22.700,22.250 23.726,21.661 C24.661,21.124 25.473,20.439 26.166,19.615 C26.812,18.847 27.315,17.992 27.678,17.056 C28.008,16.207 28.199,15.327 28.269,14.419 C28.271,14.387 28.285,14.356 28.294,14.324 C28.294,13.955 28.294,13.587 28.294,13.219 ZM8.595,33.028 C8.719,33.134 9.032,33.122 9.205,33.045 C9.986,32.695 10.735,32.269 11.525,31.939 C11.924,31.771 12.383,31.679 12.816,31.675 C13.558,31.670 14.301,31.760 15.044,31.811 C16.208,31.892 17.378,31.922 18.533,32.069 C20.068,32.264 21.444,32.015 22.584,30.907 C23.310,30.201 23.923,29.001 24.601,28.250 C26.379,26.276 28.256,24.780 30.010,22.785 C30.377,22.368 30.609,22.318 30.968,21.871 C30.015,21.204 29.169,21.318 28.175,21.983 C29.860,20.856 22.367,25.004 21.487,27.207 C21.394,27.603 21.198,27.949 20.735,28.015 C19.280,28.225 17.825,28.435 16.368,28.632 C16.223,28.652 16.050,28.621 15.923,28.552 C15.825,28.498 15.708,28.334 15.727,28.247 C15.753,28.126 15.887,27.958 15.997,27.941 C16.522,27.855 17.054,27.820 17.583,27.756 C18.487,27.645 19.394,27.550 20.289,27.393 C20.495,27.357 20.739,27.135 20.833,26.936 C21.206,26.146 20.939,25.638 20.098,25.430 C20.030,25.413 19.964,25.387 19.897,25.368 C18.118,24.879 16.683,24.934 14.827,24.949 C13.325,24.960 11.536,24.865 10.372,25.851 C8.797,27.187 7.285,28.597 5.747,29.976 C5.656,30.058 5.580,30.155 5.469,30.275 C6.525,31.213 7.545,32.138 8.595,33.028 ZM19.222,21.186 C15.159,21.199 11.821,17.864 11.806,13.778 C11.793,9.718 15.124,6.370 19.195,6.356 C23.257,6.341 26.600,9.681 26.610,13.764 C26.620,17.829 23.291,21.173 19.222,21.186 ZM22.857,13.148 C21.778,13.143 20.700,13.145 19.621,13.144 C19.564,13.144 19.507,13.144 19.427,13.144 C19.427,13.064 19.427,13.007 19.427,12.949 C19.427,12.096 19.431,11.243 19.424,10.391 C19.422,10.244 19.399,10.085 19.337,9.956 C19.159,9.587 18.767,9.396 18.399,9.495 C18.033,9.594 17.749,9.872 17.748,10.347 C17.747,11.549 17.743,12.751 17.753,13.953 C17.754,14.110 17.804,14.281 17.879,14.419 C18.047,14.726 18.338,14.828 18.674,14.827 C19.705,14.826 20.735,14.827 21.766,14.826 C22.104,14.826 22.442,14.831 22.781,14.825 C23.354,14.814 23.731,14.376 23.642,13.834 C23.580,13.451 23.245,13.150 22.857,13.148 ZM75.282,74.946 L39.916,74.946 L39.916,39.518 L75.282,39.518 L75.282,74.946 ZM47.632,46.715 C47.625,46.554 47.581,46.394 47.554,46.234 C47.531,46.238 47.508,46.242 47.485,46.245 C47.436,48.146 47.386,50.045 47.337,51.945 C47.266,51.947 47.196,51.948 47.125,51.949 C47.031,50.047 46.936,48.147 46.841,46.245 C46.632,48.142 46.743,50.047 46.603,51.939 C46.529,51.939 46.456,51.939 46.383,51.939 C46.339,50.053 46.296,48.167 46.253,46.280 C46.006,48.166 46.040,50.070 45.856,51.957 C45.793,51.955 45.729,51.953 45.666,51.952 C45.618,50.057 45.571,48.163 45.524,46.268 C45.493,46.261 45.464,46.254 45.433,46.247 C45.416,46.372 45.387,46.496 45.382,46.621 C45.306,48.459 45.222,50.296 45.164,52.134 C45.146,52.687 45.239,53.236 45.568,53.707 C46.037,54.378 46.265,55.134 46.272,55.937 C46.281,56.943 46.272,57.953 46.189,58.954 C45.952,61.828 45.670,64.699 45.416,67.571 C45.381,67.956 45.358,68.352 45.406,68.732 C45.472,69.252 46.004,69.713 46.476,69.736 C46.903,69.758 47.465,69.322 47.572,68.821 C47.640,68.499 47.649,68.153 47.617,67.825 C47.404,65.649 47.141,63.477 46.956,61.299 C46.819,59.681 46.748,58.057 46.700,56.434 C46.674,55.572 46.790,54.698 47.285,53.962 C47.714,53.325 47.854,52.650 47.825,51.905 C47.755,50.175 47.698,48.445 47.632,46.715 ZM57.528,48.542 C52.780,48.619 48.486,52.536 48.705,58.014 C48.908,63.074 53.133,66.763 57.946,66.672 C62.854,66.579 66.856,62.477 66.795,57.536 C66.732,52.428 62.669,48.459 57.528,48.542 ZM70.882,68.698 C70.877,68.686 70.868,68.676 70.866,68.664 C70.796,68.184 70.708,67.706 70.661,67.224 C70.575,66.374 70.489,65.521 70.449,64.667 C70.387,63.352 70.352,62.035 70.330,60.718 C70.316,59.903 70.345,59.089 70.362,58.274 C70.385,57.237 70.415,56.199 70.445,55.162 C70.482,53.866 70.528,52.570 70.559,51.273 C70.578,50.481 70.657,49.687 70.537,48.895 C70.493,48.606 70.451,48.317 70.308,48.056 C70.155,47.779 69.903,47.733 69.664,47.941 C69.575,48.019 69.495,48.110 69.425,48.206 C69.204,48.507 69.056,48.845 68.931,49.194 C68.724,49.774 68.631,50.380 68.544,50.985 C68.412,51.912 68.287,52.842 68.205,53.774 C68.112,54.841 68.087,55.912 68.243,56.977 C68.308,57.422 68.407,57.859 68.621,58.259 C68.783,58.561 69.000,58.804 69.336,58.921 C69.368,58.932 69.399,59.001 69.398,59.044 C69.388,60.402 69.393,61.761 69.352,63.118 C69.319,64.187 69.245,65.255 69.154,66.320 C69.088,67.102 68.960,67.878 68.869,68.657 C68.833,68.974 68.838,69.293 68.984,69.588 C69.167,69.960 69.450,70.213 69.882,70.210 C70.275,70.207 70.548,69.975 70.725,69.640 C70.801,69.495 70.831,69.325 70.882,69.167 C70.882,69.010 70.882,68.854 70.882,68.698 ZM64.076,58.012 C64.111,54.422 61.254,51.485 57.715,51.421 C55.189,51.376 52.954,52.788 51.845,54.876 C52.884,52.607 55.224,51.048 57.881,51.095 C61.421,51.158 64.277,54.096 64.242,57.685 C64.232,58.684 63.977,59.618 63.563,60.461 C63.882,59.706 64.067,58.880 64.076,58.012 ZM57.560,51.753 C57.588,51.753 57.613,51.761 57.641,51.761 C54.453,51.806 51.910,54.407 51.906,57.659 C51.903,60.848 54.533,63.459 57.749,63.461 C60.983,63.462 63.583,60.842 63.587,57.578 C63.588,56.393 63.225,55.291 62.608,54.369 C63.321,55.370 63.748,56.584 63.747,57.898 C63.743,61.340 61.000,64.105 57.589,64.103 C57.212,64.103 56.847,64.057 56.489,63.992 C56.354,63.965 56.219,63.931 56.084,63.896 C55.927,63.856 55.776,63.804 55.624,63.753 C55.362,63.662 55.103,63.559 54.850,63.434 C54.771,63.394 54.694,63.350 54.616,63.307 C54.378,63.177 54.146,63.031 53.923,62.869 C52.416,61.751 51.423,59.983 51.425,57.984 C51.430,54.523 54.156,51.754 57.560,51.753 ZM90.600,30.213 L90.744,30.213 L98.641,30.213 L98.761,30.213 C99.378,30.230 99.687,30.475 99.687,30.945 C99.687,31.435 99.378,31.679 98.761,31.679 L98.641,31.679 L91.213,31.679 L91.213,37.732 L96.631,37.732 L96.751,37.732 C97.368,37.749 97.677,37.993 97.677,38.465 C97.677,38.962 97.368,39.210 96.751,39.210 L96.631,39.210 L91.213,39.210 L91.213,46.363 L91.213,46.514 C91.198,47.264 90.920,47.639 90.383,47.639 C89.829,47.639 89.553,47.264 89.553,46.514 L89.553,46.363 L89.553,31.502 L89.553,31.350 C89.553,30.929 89.632,30.635 89.793,30.465 C89.954,30.297 90.223,30.213 90.600,30.213 ZM90.698,56.815 L90.856,56.815 L99.493,56.815 L99.624,56.815 C100.300,56.833 100.638,57.088 100.638,57.580 C100.638,58.091 100.300,58.346 99.624,58.346 L99.493,58.346 L91.369,58.346 L91.369,64.663 L97.294,64.663 L97.426,64.663 C98.102,64.681 98.440,64.936 98.440,65.428 C98.440,65.947 98.102,66.206 97.426,66.206 L97.294,66.206 L91.369,66.206 L91.369,73.672 L91.369,73.830 C91.352,74.613 91.049,75.003 90.461,75.003 C89.855,75.003 89.553,74.613 89.553,73.830 L89.553,73.672 L89.553,58.161 L89.553,58.002 C89.553,57.563 89.640,57.255 89.816,57.080 C89.991,56.903 90.285,56.815 90.698,56.815 ZM104.598,56.631 C105.204,56.631 105.506,57.022 105.506,57.805 L105.506,57.963 L105.506,73.672 L105.506,73.830 C105.489,74.613 105.185,75.003 104.598,75.003 C103.992,75.003 103.690,74.613 103.690,73.830 L103.690,73.672 L103.690,57.963 L103.690,57.805 C103.707,57.022 104.010,56.631 104.598,56.631 ZM109.927,56.815 L110.059,56.815 L121.816,56.815 L121.947,56.815 C122.623,56.833 122.961,57.088 122.961,57.580 C122.961,58.091 122.623,58.346 121.947,58.346 L121.816,58.346 L116.852,58.346 L116.852,73.672 L116.852,73.830 C116.834,74.613 116.532,75.003 115.944,75.003 C115.338,75.003 115.036,74.613 115.036,73.830 L115.036,73.672 L115.036,58.346 L110.059,58.346 L109.927,58.346 C109.251,58.346 108.913,58.091 108.913,57.580 C108.913,57.334 109.001,57.146 109.176,57.013 C109.352,56.881 109.602,56.815 109.927,56.815 ZM125.033,72.086 C125.431,72.086 125.774,72.230 126.059,72.516 C126.346,72.804 126.490,73.147 126.490,73.545 C126.490,73.943 126.346,74.286 126.059,74.572 C125.774,74.860 125.431,75.003 125.033,75.003 C124.636,75.003 124.293,74.860 124.007,74.572 C123.720,74.286 123.576,73.943 123.576,73.545 C123.576,73.147 123.720,72.804 124.007,72.516 C124.293,72.230 124.636,72.086 125.033,72.086 ZM140.521,60.706 C141.085,60.706 141.365,61.081 141.365,61.830 L141.365,61.976 L141.365,69.871 L141.365,70.133 C141.386,71.057 141.457,71.709 141.583,72.089 C141.710,72.449 141.962,72.745 142.341,72.979 C142.710,73.212 143.118,73.329 143.564,73.329 C145.031,73.329 146.555,72.463 148.140,70.731 L148.140,61.976 L148.140,61.830 C148.140,61.081 148.420,60.706 148.984,60.706 C149.546,60.706 149.828,61.081 149.828,61.830 L149.828,61.976 L149.828,73.620 L149.828,73.767 C149.828,74.516 149.546,74.890 148.984,74.890 C148.420,74.890 148.140,74.516 148.140,73.767 L148.140,73.620 L148.140,72.511 C146.527,74.098 144.972,74.890 143.478,74.890 C142.768,74.890 142.107,74.715 141.497,74.365 C140.874,74.034 140.424,73.587 140.142,73.022 C139.830,72.351 139.676,71.515 139.676,70.512 L139.676,70.264 L139.676,61.976 L139.676,61.830 C139.696,61.081 139.977,60.706 140.521,60.706 Z"/></svg>