<svg xmlns="http://www.w3.org/2000/svg" xmlns:xlink="http://www.w3.org/1999/xlink" width="17px" height="18px"><path fill-rule="evenodd" fill="rgb(0, 0, 0)" d="M16.696,18.000 L0.304,18.000 C0.136,18.000 -0.000,17.866 -0.000,17.700 L-0.000,4.800 L-0.000,1.500 C-0.000,1.334 0.136,1.200 0.304,1.200 L2.428,1.200 L2.428,0.300 C2.428,0.134 2.564,-0.000 2.732,-0.000 L4.857,-0.000 C5.025,-0.000 5.161,0.134 5.161,0.300 L5.161,1.200 L11.839,1.200 L11.839,0.300 C11.839,0.134 11.975,-0.000 12.143,-0.000 L14.268,-0.000 C14.436,-0.000 14.571,0.134 14.571,0.300 L14.571,1.200 L16.696,1.200 C16.864,1.200 17.000,1.334 17.000,1.500 L17.000,4.800 L17.000,17.700 C17.000,17.866 16.864,18.000 16.696,18.000 ZM4.554,1.500 L4.554,0.600 L3.036,0.600 L3.036,1.500 L3.036,2.400 L4.554,2.400 L4.554,1.500 ZM13.964,1.500 L13.964,0.600 L12.446,0.600 L12.446,1.500 L12.446,2.400 L13.964,2.400 L13.964,1.500 ZM16.393,1.800 L14.571,1.800 L14.571,2.700 C14.571,2.866 14.436,3.000 14.268,3.000 L12.143,3.000 C11.975,3.000 11.839,2.866 11.839,2.700 L11.839,1.800 L5.161,1.800 L5.161,2.700 C5.161,2.866 5.025,3.000 4.857,3.000 L2.732,3.000 C2.564,3.000 2.428,2.866 2.428,2.700 L2.428,1.800 L0.607,1.800 L0.607,4.500 L16.393,4.500 L16.393,1.800 ZM16.393,5.100 L0.607,5.100 L0.607,17.400 L16.393,17.400 L16.393,5.100 ZM6.071,6.900 L8.196,6.900 L8.804,6.900 L10.928,6.900 L11.536,6.900 L14.268,6.900 L14.268,9.600 L14.268,10.200 L14.268,12.300 L14.268,12.900 L14.268,15.600 L11.536,15.600 L10.928,15.600 L8.804,15.600 L8.196,15.600 L6.071,15.600 L5.464,15.600 L2.732,15.600 L2.732,12.900 L2.732,12.300 L2.732,10.200 L2.732,9.600 L2.732,6.900 L5.464,6.900 L6.071,6.900 ZM11.536,15.000 L13.661,15.000 L13.661,12.900 L11.536,12.900 L11.536,15.000 ZM11.536,12.300 L13.661,12.300 L13.661,10.200 L11.536,10.200 L11.536,12.300 ZM11.536,9.600 L13.661,9.600 L13.661,7.500 L11.536,7.500 L11.536,9.600 ZM8.804,15.000 L10.928,15.000 L10.928,12.900 L8.804,12.900 L8.804,15.000 ZM8.804,12.300 L10.928,12.300 L10.928,10.200 L8.804,10.200 L8.804,12.300 ZM8.804,9.600 L10.928,9.600 L10.928,7.500 L8.804,7.500 L8.804,9.600 ZM6.071,15.000 L8.196,15.000 L8.196,12.900 L6.071,12.900 L6.071,15.000 ZM6.071,12.300 L8.196,12.300 L8.196,10.200 L6.071,10.200 L6.071,12.300 ZM6.071,9.600 L8.196,9.600 L8.196,7.500 L6.071,7.500 L6.071,9.600 ZM3.339,15.000 L5.464,15.000 L5.464,12.900 L3.339,12.900 L3.339,15.000 ZM3.339,12.300 L5.464,12.300 L5.464,10.200 L3.339,10.200 L3.339,12.300 ZM3.339,9.600 L5.464,9.600 L5.464,7.500 L3.339,7.500 L3.339,9.600 Z"/></svg>