<svg id="Слой_1" data-name="Слой 1" xmlns="http://www.w3.org/2000/svg" viewBox="0 0 201 99"><defs><style>.cls-1{fill:#fff;}</style></defs><title>logo</title><path class="cls-1" d="M200.18,55.86a11.08,11.08,0,0,1-2.28,3.79,8.93,8.93,0,0,1-3.33,2.27,12.31,12.31,0,0,1-4.44.73h-6.45a1.24,1.24,0,0,1-1.45-1.44V41.35a1.65,1.65,0,0,1,.32-1.15,1.44,1.44,0,0,1,1.07-.32h6.59q5.08,0,7.81,3.12a11.37,11.37,0,0,1,2.21,3.7,13.54,13.54,0,0,1,.75,4.54A13.24,13.24,0,0,1,200.18,55.86Zm-3.71-11.34a7.75,7.75,0,0,0-1.78-1.57,7,7,0,0,0-2.15-.87,12.88,12.88,0,0,0-2.82-.27h-5.28v18.9h5.22a10.59,10.59,0,0,0,3.87-.63,7.41,7.41,0,0,0,2.77-2,9.86,9.86,0,0,0,2.37-6.81A10,10,0,0,0,196.47,44.52ZM182.91,82a1,1,0,0,1-.29.69,1,1,0,0,1-.71.33.92.92,0,0,1-.54-.14l-.6-.36a1.39,1.39,0,0,0-.75-.19q-1.33,0-3.06,1.81a10.71,10.71,0,0,0-1.33,1.71V97.37q0,1.48-1.12,1.48t-1.12-1.48V81.61q0-1.48,1.12-1.48t1.12,1.48V83a8.36,8.36,0,0,1,2.26-2.14,4.37,4.37,0,0,1,2.33-.75,3.56,3.56,0,0,1,1.35.25,2.43,2.43,0,0,1,1,.69A1.38,1.38,0,0,1,182.91,82Zm-7.32-22.2a10,10,0,0,1-3.48,2.49,10.77,10.77,0,0,1-4.35.87,10,10,0,0,1-5.46-1.53,10.43,10.43,0,0,1-3.8-4.29,13.49,13.49,0,0,1-1.37-6.12,14.41,14.41,0,0,1,.32-3,11.64,11.64,0,0,1,.92-2.77,10.91,10.91,0,0,1,1.51-2.37,9.79,9.79,0,0,1,7.94-3.67,10.37,10.37,0,0,1,5.57,1.52,10.5,10.5,0,0,1,3.85,4.25,13.59,13.59,0,0,1,1.37,6.17,13.39,13.39,0,0,1-.78,4.69A11.09,11.09,0,0,1,175.58,59.78Zm.08-12.51a9.89,9.89,0,0,0-1.77-3.14,8.41,8.41,0,0,0-2.71-2.07,7.84,7.84,0,0,0-3.34-.73,7.63,7.63,0,0,0-3.31.73,7.9,7.9,0,0,0-2.69,2.05,9.88,9.88,0,0,0-1.78,3.15,11.94,11.94,0,0,0-.64,4,12.6,12.6,0,0,0,.27,2.63,10.67,10.67,0,0,0,.84,2.46,8.84,8.84,0,0,0,3,3.59,7.77,7.77,0,0,0,8.61,0,8.82,8.82,0,0,0,3-3.6,12.4,12.4,0,0,0,.46-9ZM163.53,3.12l0,.06a.11.11,0,0,1,0,.06l0,.07L155.8,15.5V24.9q0,1.63-1.25,1.63t-1.26-1.63V15.5L145.66,3.36l-.16-.28a1.9,1.9,0,0,1-.31-.92,1.18,1.18,0,0,1,.37-.86,1.2,1.2,0,0,1,.88-.35,1.47,1.47,0,0,1,1.25.84l.13.22,6.81,11,6.82-10.93.13-.22A1.52,1.52,0,0,1,162.85,1a1.2,1.2,0,0,1,.79.31A.92.92,0,0,1,164,2a2.26,2.26,0,0,1-.42,1.06A.07.07,0,0,1,163.53,3.12ZM152.67,45.17A13.63,13.63,0,0,1,154,51.34a13.36,13.36,0,0,1-.78,4.69A11.08,11.08,0,0,1,151,59.78a10,10,0,0,1-3.49,2.49,10.76,10.76,0,0,1-4.35.87,10,10,0,0,1-5.46-1.53,10.43,10.43,0,0,1-3.8-4.29,13.49,13.49,0,0,1-1.37-6.12,14.54,14.54,0,0,1,.32-3,11.5,11.5,0,0,1,.92-2.77,10.83,10.83,0,0,1,1.51-2.37,9.79,9.79,0,0,1,7.94-3.67,10.36,10.36,0,0,1,5.57,1.52A10.52,10.52,0,0,1,152.67,45.17Zm-9.39-3.84a7.63,7.63,0,0,0-3.31.73,7.91,7.91,0,0,0-2.69,2.05,9.86,9.86,0,0,0-1.78,3.15,11.94,11.94,0,0,0-.64,4,12.66,12.66,0,0,0,.27,2.63,10.86,10.86,0,0,0,.85,2.46,8.85,8.85,0,0,0,3,3.59,7.77,7.77,0,0,0,8.61,0,8.81,8.81,0,0,0,3-3.6,12.39,12.39,0,0,0,.46-9,9.93,9.93,0,0,0-1.77-3.14,8.47,8.47,0,0,0-2.71-2.07A7.85,7.85,0,0,0,143.28,41.33Zm-2.06-14.79q-1.19,0-1.34-1.74l-1.5-17.88-7,18.36q-.48,1.25-1.34,1.25t-1.32-1.23L121.6,6.92,120,24.79a2.91,2.91,0,0,1-.37,1.36,1,1,0,0,1-.88.4q-1.16,0-1.15-1.41c0-.11,0-.3,0-.57l2-21.72a1.77,1.77,0,0,1,0-.29Q119.73,1,120.91,1a1.28,1.28,0,0,1,.92.33,3.91,3.91,0,0,1,.7,1.26l.11.29,7.54,19.18,7.36-19.27a1.65,1.65,0,0,0,.11-.28,3.64,3.64,0,0,1,.62-1.21,1.11,1.11,0,0,1,.83-.31q1.21,0,1.36,1.8l2,21.79,0,.44a1.68,1.68,0,0,1-.35,1.1A1.1,1.1,0,0,1,141.23,26.55ZM98,28.71V1.28H53.48v44.5H98v-5.4l1.28-.21v6.9H52.2V0H99.26V27.79ZM.73,52.16H47.5V98.93H.73ZM14.47,95.62a3.84,3.84,0,0,0,.64,0,1,1,0,0,0,1-.77c.08-.31.07-.65.12-1s.14-.42.2-.63.16-.39.09-.52,0-.37.1-.54l.21-.34A34.56,34.56,0,0,0,19.49,87a8.06,8.06,0,0,1,1.23-2.08,7.87,7.87,0,0,0,1.42-2.21,25.49,25.49,0,0,1,2.49-4.86,5,5,0,0,0,.42-.95,2.84,2.84,0,0,1,.18-.32,16.65,16.65,0,0,1,.94,1.69A41.44,41.44,0,0,1,28,83.92c.18.81.61,1.57.84,2.37a18.51,18.51,0,0,0,1.65,3.8c.58,1.06,1.12,2.14,1.67,3.21.11.21.22.43,0,.67-.06.08,0,.24,0,.36a4,4,0,0,1-.1.86.79.79,0,0,0,.64,1.15,6.06,6.06,0,0,1,2,.62,2.24,2.24,0,0,0,1.44.21.51.51,0,0,0,.47-.45.66.66,0,0,0-.22-.45c-.24-.23-.54-.4-.78-.64s-.63-.7-1-1a1.38,1.38,0,0,1-.48-.79c0-.1-.17-.27-.23-.26-.24,0-.29-.1-.33-.26-.25-.85-.53-1.7-.72-2.57a24,24,0,0,0-2.09-6.24,1.67,1.67,0,0,1-.19-.55c-.14-1-.28-1.91-.37-2.86A25.13,25.13,0,0,0,29.85,77c.28,0,.23-.18.17-.34-.25-.62-.5-1.24-.74-1.85a4.27,4.27,0,0,1-.33-2,9.4,9.4,0,0,0,0-1.29c-.06-1.21-.15-2.41-.19-3.62a4.4,4.4,0,0,1,.11-1.27,3.56,3.56,0,0,0-.46-2.83l-.23-.4a1.36,1.36,0,0,1,.23-1.89c.66-.71,1.33-1.42,2-2.16a3.62,3.62,0,0,0,.89-1.6c.12-.59-.06-.82-.67-.84a11.76,11.76,0,0,0-3.25.42l-.8.19c0-.18,0-.31,0-.44A2.21,2.21,0,0,0,23.89,55a2.21,2.21,0,0,1-1.33-.22,1.79,1.79,0,0,0-1.77,0,5.09,5.09,0,0,0-.71.49c-.4.32-.76.7-1.19,1a2.41,2.41,0,0,1-2.53.23h-.06l.13.19-.24-.06.11.21-.52-.16.41.37,0,0-.52-.16a6.51,6.51,0,0,0,2,1.15c1.45.08,2.94.37,4.17-.71l.37.69c-.5.2-1,.41-1.5.6a3.82,3.82,0,0,1-.68.17c-.86.15-1.73.23-2.57.45a12.45,12.45,0,0,0-2.21.81c-.57.27-.61.7-.15,1.13s1.21,1.11,1.86,1.61a10.35,10.35,0,0,0,2.91,1.43,2.37,2.37,0,0,1,1.16.77c.56.75,1.16,1.46,1.7,2.23A22.15,22.15,0,0,1,24,69.18a1,1,0,0,1-.08,1.14c-.19.28-.35.58-.55.85a11.7,11.7,0,0,0-1.39,2.38c-.41.95-.85,1.89-1.27,2.83,0,.11-.09.31,0,.36s.09.27.06.42a6,6,0,0,0-.12.63,15.36,15.36,0,0,1-3,7.42A5.49,5.49,0,0,0,16.76,87q-.66,2.43-1.3,4.87a.83.83,0,0,1-.43.59.56.56,0,0,0-.34.56,1.51,1.51,0,0,1-.14.69,5.06,5.06,0,0,1-.53.75C13.6,95,13.79,95.51,14.47,95.62ZM26.46,59c0-.18.1-.25.26-.27L29,58.47l0,.09a1,1,0,0,1-.12.18c-.39.37-.77.73-1.16,1.09L26,61.43l-.15.14a.63.63,0,0,1-.05-.87A2.5,2.5,0,0,0,26.46,59Zm-4.73,3.53a7.13,7.13,0,0,0-1.54-.36,26.4,26.4,0,0,1-2.69-.91.5.5,0,0,1-.11-.08c0-.05.07-.1.11-.12a16.54,16.54,0,0,1,2.89-1.18,1.1,1.1,0,0,1,1,.19,1.06,1.06,0,0,0,.88.19l.69-.12L23,60l-.74-.21c.66-.19,1,.07,1,.8,0,.3,0,.6,0,.89A1.15,1.15,0,0,1,21.72,62.52ZM0,.1H46.77V46.87H0ZM37.42,17.45l-.12-.89a11.78,11.78,0,0,0-1.25-3.94,12,12,0,0,0-1.77-2.53A12.17,12.17,0,0,0,31.81,8a11.88,11.88,0,0,0-4-1.6c-.5-.11-1-.14-1.52-.22l-.2,0H24.68l-1.1.15A11.74,11.74,0,0,0,19.06,8a12,12,0,0,0-3.29,3,11.46,11.46,0,0,0-2.06,4.47c-.13.6-.19,1.21-.28,1.82,0,0,0,.1,0,.14v1.46l.12.89A11.8,11.8,0,0,0,15,24.15a12.05,12.05,0,0,0,6.1,5.23,12.21,12.21,0,0,0,3.46.77l.13,0h1.46l.89-.12a11.8,11.8,0,0,0,4.36-1.48,12,12,0,0,0,6-9.56.76.76,0,0,1,0-.13Zm-26,26.15a.94.94,0,0,0,.81,0c1-.46,2-1,3.07-1.46A4.63,4.63,0,0,1,17,41.81c1,0,2,.11,2.95.18,1.54.11,3.09.15,4.61.34a6.09,6.09,0,0,0,5.36-1.53c1-.93,1.77-2.52,2.67-3.51,2.35-2.61,4.83-4.58,7.15-7.21.48-.55.79-.62,1.27-1.21a2.92,2.92,0,0,0-3.69.15c2.23-1.49-7.68,4-8.85,6.9a1.2,1.2,0,0,1-1,1.07c-1.92.28-3.85.55-5.77.81a1,1,0,0,1-.59-.11c-.13-.07-.28-.29-.26-.4a.59.59,0,0,1,.36-.4c.69-.11,1.4-.16,2.1-.25,1.2-.15,2.39-.27,3.58-.48a1.18,1.18,0,0,0,.72-.6c.49-1,.14-1.71-1-2l-.26-.08a22.6,22.6,0,0,0-6.7-.55c-2,0-4.35-.11-5.89,1.19-2.08,1.76-4.08,3.62-6.12,5.44-.12.11-.22.24-.37.39C8.64,41.2,10,42.42,11.37,43.6ZM25.43,28a9.79,9.79,0,1,1,9.77-9.8A9.83,9.83,0,0,1,25.43,28Zm4.81-10.61H25.7v-.26c0-1.13,0-2.25,0-3.38a1.38,1.38,0,0,0-.11-.57,1.08,1.08,0,0,0-1.24-.61,1.1,1.1,0,0,0-.86,1.13c0,1.59,0,3.17,0,4.76a1.36,1.36,0,0,0,.17.62,1.09,1.09,0,0,0,1.05.54h5.43a1.11,1.11,0,0,0,1.14-1.31A1.08,1.08,0,0,0,30.23,17.36ZM99.56,98.93H52.79V52.16H99.56ZM63,61.66a5.15,5.15,0,0,0-.1-.63H62.8q-.1,3.76-.2,7.53h-.28q-.19-3.76-.38-7.53c-.28,2.5-.13,5-.31,7.52h-.29q-.09-3.73-.17-7.47c-.33,2.49-.28,5-.52,7.49H60.4q-.09-3.75-.19-7.5l-.12,0c0,.17-.06.33-.07.49-.1,2.42-.21,4.85-.29,7.28a3.35,3.35,0,0,0,.53,2.08,5.12,5.12,0,0,1,.93,2.94c0,1.33,0,2.66-.11,4-.31,3.79-.69,7.58-1,11.38a7.27,7.27,0,0,0,0,1.53,1.44,1.44,0,0,0,2.86.12A4.33,4.33,0,0,0,63,89.53c-.28-2.87-.63-5.74-.87-8.61-.18-2.14-.28-4.28-.34-6.42a5.42,5.42,0,0,1,.77-3.26,4.34,4.34,0,0,0,.71-2.71C63.16,66.23,63.08,63.95,63,61.66Zm13.09,2.41A12,12,0,1,0,88.34,75.95,11.89,11.89,0,0,0,76.08,64.07ZM93.74,90.68a.17.17,0,0,1,0,0c-.09-.63-.21-1.26-.27-1.9-.11-1.12-.23-2.25-.28-3.37-.08-1.74-.13-3.47-.16-5.21,0-1.07,0-2.15,0-3.23,0-1.37.07-2.74.11-4.11,0-1.71.11-3.42.15-5.13a17.89,17.89,0,0,0,0-3.14,3.25,3.25,0,0,0-.3-1.11.51.51,0,0,0-.85-.15,2.19,2.19,0,0,0-.32.35,5,5,0,0,0-.65,1.3,12.06,12.06,0,0,0-.51,2.36c-.18,1.22-.34,2.45-.45,3.68a18.17,18.17,0,0,0,0,4.23,5.06,5.06,0,0,0,.5,1.69,1.71,1.71,0,0,0,.94.88s.08.1.08.16c0,1.79,0,3.59-.06,5.38,0,1.41-.14,2.82-.26,4.23-.09,1-.26,2.06-.38,3.08a2.16,2.16,0,0,0,.15,1.23,1.28,1.28,0,0,0,1.19.82,1.25,1.25,0,0,0,1.11-.75,4,4,0,0,0,.21-.62Zm-9-14.11a8.6,8.6,0,0,0-16.16-4.18A8.6,8.6,0,0,1,85,76.14a8.5,8.5,0,0,1-1.11,4.11A8.48,8.48,0,0,0,84.74,76.58Zm-8.62-8.26h.11A7.72,7.72,0,1,0,84.09,76a7.57,7.57,0,0,0-1.32-4.28,8,8,0,0,1,1.53,4.7,8.15,8.15,0,0,1-8.14,8.19h0c-.23,0-.46,0-.68,0a8.67,8.67,0,0,1-5-2.26A8,8,0,0,1,68,76.54,8.14,8.14,0,0,1,76.12,68.31Zm43.69-28.43h10.79q1.22,0,1.23,1t-1.23,1h-10v8h7.32q1.22,0,1.23,1t-1.23,1h-7.32V61.4q0,1.49-1.1,1.49t-1.1-1.49v-20a1.68,1.68,0,0,1,.32-1.17A1.43,1.43,0,0,1,119.82,39.88ZM119.94,75h11.8q1.34,0,1.34,1t-1.34,1H120.83v8.34h8q1.34,0,1.34,1t-1.34,1h-8V97.46q0,1.55-1.2,1.55t-1.2-1.55V76.56a1.7,1.7,0,0,1,.35-1.22A1.61,1.61,0,0,1,119.94,75Zm18.38-.24q1.2,0,1.2,1.55V97.46q0,1.55-1.2,1.55t-1.2-1.55V76.3Q137.16,74.75,138.33,74.75Zm7,.24h15.9q1.34,0,1.34,1t-1.34,1h-6.74V97.46q0,1.55-1.2,1.55t-1.2-1.55V77h-6.76Q144,77,144,76a.88.88,0,0,1,.35-.75A1.64,1.64,0,0,1,145.37,75Zm20,20.16a1.94,1.94,0,1,1-1.36.57A1.85,1.85,0,0,1,165.35,95.15Zm20.48-15c.75,0,1.12.5,1.12,1.48v11a9.93,9.93,0,0,0,.29,2.58,2.26,2.26,0,0,0,1,1.18,3,3,0,0,0,1.62.46q2.91,0,6.05-3.43V81.61c0-1,.37-1.48,1.12-1.48s1.12.5,1.12,1.48V97.37q0,1.48-1.12,1.48c-.75,0-1.12-.49-1.12-1.48V95.71q-3.2,3.14-6.17,3.14a5.19,5.19,0,0,1-2.62-.69,4,4,0,0,1-1.79-1.77,7.85,7.85,0,0,1-.62-3.31V81.61Q184.75,80.13,185.83,80.13Z"/><path class="cls-1" d="M104.58,9.29c-.13-1.06.15-1.27,1.14-.89,1.25.48,1.43,1.12,1.33,2.39-.09,1.1-.22,2.21-.22,3.31a15.6,15.6,0,0,1-.49,3.63c-.11.46-.21,1.07-.8,1.15a1.56,1.56,0,0,1-1.62-.77,17.43,17.43,0,0,0-1.4-2c0,1-.35,1.77-.37,2.54a24.48,24.48,0,0,0-.24,3.59c.06.5-.32.58-.65.7.09.26.3.24.45.29a15.57,15.57,0,0,1,5,3c1.21,1,1.17,2,.1,3.55-1.45,2.11-2.64,4.37-3.9,6.58a3.65,3.65,0,0,0-.45,1.56c0,.23-.09.48.2.63a.35.35,0,0,1,.11.47c-.38,1,.18,1.67.73,2.35a6.61,6.61,0,0,0,.5.52c.18.17.35.34.22.62a.56.56,0,0,1-.67.28,4.23,4.23,0,0,1-2-.84,12.63,12.63,0,0,0-2.33-1.75c-.5-.22-.57-.65-.34-1.16A3.14,3.14,0,0,1,100,37.65a3.38,3.38,0,0,0,1-1.72,35.66,35.66,0,0,0,1.48-5.1,4.35,4.35,0,0,1,.51-1.48c.26-.41.09-.51-.3-.55a20.76,20.76,0,0,1-3-.16c-.24-.06-.26.19-.33.33a16.45,16.45,0,0,1-2.55,3.69c-1,1.09-2.08,2.1-3,3.28a5.16,5.16,0,0,1-2.23,1.18,3.56,3.56,0,0,0-.55.19c-2.31,1.49-4.89,2.49-7.17,4a3.36,3.36,0,0,0-.93.81c-.29.21-.82.29-.3.85.18.19-.15.29-.33.33a2.08,2.08,0,0,0-1.29.79,3.88,3.88,0,0,0-1,2.2c0,.35-.18.68-.56.7s-.46-.39-.51-.7a5.26,5.26,0,0,1,.13-2.83c.25-.64.7-1.24.43-2,0-.17,0-.35,0-.52-.12-1.81.51-1.83,1.81-1.62a2.72,2.72,0,0,0,2.22-.63l2.91-2.22c.05,0,.12-.07.15-.13.61-1.31,1.9-1.71,3.06-2.17a4.21,4.21,0,0,0,2.45-2.72,21,21,0,0,1,1.66-3.76,2.57,2.57,0,0,0,.13-2.28,3.52,3.52,0,0,1,.12-2,2.11,2.11,0,0,1,.3-.79c.9-1.35.51-2.74.22-4.15a16.29,16.29,0,0,1-.3-3.79,8.73,8.73,0,0,0-.31-2.4c-.09-.34-.25-.45-.61-.37a7.75,7.75,0,0,1-3.4.4c-.29-.06-.44.19-.53.41-.69,1.62-1.64,3.14-1.84,5a.93.93,0,0,0,.25.95c.63.52.89,1.35,1.55,1.83.08.06.19.14.14.26s-.21.14-.34.12a1.76,1.76,0,0,1-.85-.58c-.44-.41-.63-.35-.78.23a3.05,3.05,0,0,0,0,1c0,.4-.13.62-.53.48a.34.34,0,0,0-.43.1c-.2.2-.35.07-.5-.08a3.52,3.52,0,0,0,0-.46c0-.2.24-.51,0-.57s-.24.34-.36.52,0,.64-.47.56c-.31-.51.21-.94.16-1.46-.43.12-.59.47-.82.75s-.24.4-.45.22,0-.36.1-.52.27-.34.41-.51.3-.25.33-.4c.21-1.12,1-2.06,1-3.2a24.51,24.51,0,0,1,1.41-5.72.81.81,0,0,1,.45-.54,18.07,18.07,0,0,1,3-1.32,7.21,7.21,0,0,0,2.91-1.06A1.25,1.25,0,0,1,95,8.15c.88.35,1.6-.19,2.39-.35.28-.05.25-.32.26-.54a3.16,3.16,0,0,0-.45-1.42c-.64-1.54-.41-2.57.75-3.52a2.11,2.11,0,0,1,.81-.41c.89-.24.9-.26,1.06-1.3.15.63.64.26,1,.54.65.55,1.39.9,1.28,2,0,.44.44.95.49,1.51,0,.28.14.56-.1.8,0,0-.1.12-.09.17.29,1-.67,1.65-.65,2.56,0,.31-.22.32-.45.33s-.58.13-.57.49.36.27.55.28c1.34.06,2,.45,2.59,2.64A7.61,7.61,0,0,0,105,14.4c.11-.87.21-1.61.29-2.35a.64.64,0,0,0-.22-.53c-.56-.56-.78-1.37-1.38-1.89-.09-.07-.15-.21-.07-.29s.41-.08.61,0a2,2,0,0,0,.56.6A.57.57,0,0,0,104.58,9.29Z"/></svg>