<svg xmlns="http://www.w3.org/2000/svg" xmlns:xlink="http://www.w3.org/1999/xlink" width="27px" height="27px"><g><path fill-rule="evenodd" fill="#ee9833" d="M15.041,13.500 L26.680,25.138 C27.105,25.564 27.105,26.255 26.680,26.681 C26.467,26.894 26.187,27.000 25.908,27.000 C25.629,27.000 25.350,26.894 25.137,26.681 L13.499,15.042 L1.861,26.680 C1.648,26.893 1.369,27.000 1.090,27.000 C0.811,27.000 0.532,26.894 0.319,26.680 C-0.107,26.255 -0.107,25.564 0.319,25.138 L11.957,13.500 L0.319,1.861 C-0.107,1.435 -0.107,0.745 0.319,0.319 C0.745,-0.107 1.435,-0.107 1.861,0.319 L13.499,11.957 L25.137,0.319 C25.563,-0.107 26.254,-0.107 26.680,0.319 C27.105,0.745 27.105,1.435 26.680,1.861 L15.041,13.500 Z"/></g></svg>